<?xml version='1.0' encoding='utf-8'?>
<svg xmlns="http://www.w3.org/2000/svg" width="12in" height="3.33333in" version="1.1" style="shape-rendering:geometricPrecision; text-rendering:geometricPrecision; image-rendering:optimizeQuality; fill-rule:evenodd; clip-rule:evenodd" viewBox="0 0 11999.99 3333.33"> <defs> <style type="text/css">  .fil0 {fill:black}  </style> </defs> <g id="Layer_x0020_1"> <metadata id="CorelCorpID_0Corel-Layer"/> <g id="_2217030839344"> <path class="fil0" d="M10550.76 2135.3c31.53,0 45.14,80.06 116.52,137.52 58.68,47.23 165.93,71.85 272.63,87.26 31.01,4.47 66.26,-8.02 162.6,-27.52 107.63,-21.78 252.34,-33.59 303.08,5.7 45.47,35.22 62.53,109.83 99.95,152.98 224.37,258.69 327.79,602.22 327.79,653.4 0,14.95 -36.04,-6.14 -66.27,-42.9 7.24,51.35 18.59,82.26 6.29,78.08 -39.23,-13.34 -56.3,-68.96 -60.46,-58.48 -5.07,34.45 -1.81,68.98 -13.93,65.49 -9.3,-2.68 -29.53,-18.06 -43.59,-45.15 -14.29,-27.54 -18.55,-85.68 -20.73,-75.16 -5.87,28.37 -0.75,59.21 -13.54,55.77 -52.11,-14.05 -65.81,-68.02 -71.15,-83.77 -5.71,-16.84 1.67,28.8 -13.46,17.32 -8.06,-6.12 -38.03,-25.17 -54.59,-45.68 -12.86,-15.93 -12.78,-34.17 -19.28,-39.01 -29.84,-22.25 -55.91,-11.88 -84.82,-81.89 -7.26,-17.58 -29.24,-14.03 -41.05,-27.89 -12.89,-15.16 -14.79,-25.85 -25.3,-40.97 -7.31,-10.52 -20.17,-10.26 -29.63,-21.66 -8.68,-10.46 -13.99,-32.65 -20.8,-41.51 -6.22,-8.1 -14.8,-10.59 -22.31,-17.94 -7.36,-7.22 -13.69,-19.35 -19.64,-26.8 -8.62,-10.78 -19.09,-16.44 -26.94,-27.74 -6.7,-9.66 -10.59,-25.34 -20.11,-31.27 -18.72,-11.64 -54.39,-20.7 -66.84,-29.01 -19.61,-13.08 -13.65,-26.84 -32.03,-22.42 -25.11,6.04 -50.46,82.49 -292.02,144.64 -47.39,12.19 -115.78,23.91 -169.99,14.36 -43.7,-7.7 -94.8,-30.48 -111.4,-29 -21.1,1.89 -23.31,18.96 -43.27,21.2 -37.56,4.22 -96.62,18.81 -126.94,19.29 -40.09,0.63 -49.09,-13.84 -80.03,-15.45 -45.35,-2.37 -87.62,-1.4 -85.38,-22.4 2.62,-24.5 -6.61,-12.6 49.94,-74.48 3.9,-4.27 -23.51,4.91 -35.01,4.86 -17.66,-0.07 -25.31,-9.7 -5.93,-22.76 17.44,-11.76 53.45,-25.15 91.8,-38.73 62.96,-22.28 72.25,-31.61 136.6,-62.23 6.32,-3 -11.07,-5.37 -24.47,-15.01 -6.13,-4.41 -0.06,-14.46 -10.69,-19.52 -5.28,-2.5 -12.32,-1.2 -16.6,-4.76 -3.11,-2.58 -3.37,-10.07 -7.39,-12.14 -14.62,-7.5 -35.26,-11.38 -45.92,-20.31 -8.45,-7.08 -6.81,-19.31 -18.2,-25.45 -48.81,-26.36 -54.6,-58.01 -71.84,-51.25 -31.27,12.27 -150.73,125.8 -226.12,230.8 -67.29,93.72 -91.65,180.92 -111.22,178.94 -11.39,-1.16 2.69,-37.9 4.27,-56.36 1.2,-14.02 -11.89,-7.85 -7.77,-23.59 4.66,-17.8 19.21,-42 13.57,-45.27 -12.37,-7.16 41.39,-57.67 35.79,-67.19 -7.02,-11.93 -18.35,-4.63 -9.03,-23.33 27.81,-55.72 101.75,-116.45 199.02,-190.81 164.44,-125.72 380.79,-260.81 445.84,-260.81z"/> <path class="fil0" d="M6516.35 1880.9c2.81,27.91 -245.51,0.25 -201.94,43.98 14.74,14.8 61.4,29.82 109.41,87.13 56.37,67.3 80.41,206.23 152.6,301.47 87.87,115.93 130.93,274.52 205.59,354.36 68.5,73.24 172.87,72.36 164.94,79.41 -24.77,22.01 -105.85,0.59 -174.72,-58.18 -5.9,-3.04 20.69,38.74 55.33,81.08 22.84,27.91 58.41,58.39 57.83,68.25 -0.83,14.09 -89.8,-57.51 -134.94,-129.15 -11.23,-5.33 59.66,123.98 60.19,138.07 0.93,24.41 -56.09,-82.2 -64.45,-55.13 -5.01,16.24 -63.34,-74.8 -78.85,-71.92 -6.87,1.28 -13.87,1.28 -20.99,-0.65 -50.81,-13.75 -48.74,-76.71 -70.54,-85.28 -16.29,-6.4 -20.22,4.54 -38.41,-9.18 -14.81,-11.17 -52.24,-69.61 -66.65,-87.56 -13.16,-16.4 -19.35,8.01 -31.32,-0.35 -10.12,-7.06 -20.56,-38.78 -29.29,-43 -11.54,-5.59 -15.36,-0.16 -25.25,-8.69 -15.22,-13.14 -21.3,-42.74 -34.13,-56.76 -8.49,-9.28 -21.58,-4.86 -31.31,-12.65 -30.8,-24.67 -21.26,-41.63 -32.23,-55.77 -8.3,-10.69 -26.31,-7.67 -34.36,-17.82 -21.4,-27 -7.04,-40.36 -19.29,-50.87 -5.45,-4.67 -15.19,5.45 -24.74,1 -11.61,-5.42 -23.21,-25.41 -29.62,-30.81 -7.21,-6.07 -18.34,-7.02 -25.28,-12.91 -6.41,-5.43 -8.67,-15.86 -14.87,-21.14 -8.23,-7.02 -20.31,-5.89 -28.19,-12.64 -6.74,-5.76 -9.35,-19.46 -15.85,-25.02 -6.17,-5.28 -16.8,-4.42 -22.78,-9.52 -7.2,-6.15 -9.75,-18.25 -16.69,-24.12 -6.76,-5.72 -19.81,-5.98 -24.76,-12.41 -4.07,-5.27 -0.07,-16.79 -5.3,-21.11 -6.65,-5.48 -22.07,0.1 -32.86,-9.96 -6.72,-6.27 -7.42,-14.41 -14.68,-20.06 -6.28,-4.88 -16.59,-2.09 -22.76,-6.71 -5.99,-4.48 -7.87,-16.4 -13.78,-20.62 -6.57,-4.69 -24.17,-6.34 -30.67,-10.72 -8.5,-5.71 -5.91,-14.07 -14.36,-19.24 -8.28,-5.06 -25.35,-8.65 -34.65,-14.28 -8.47,-5.12 -9.33,-12.32 -14.92,-17.15 -12.43,-10.76 -23.43,-3.24 -31.41,-23.55 -32.08,-6.91 -143.74,60.72 -445.8,-31.19 -28.12,50.95 -29.4,20.97 -62.41,77.29 -15.62,26.65 -19.59,57.8 -39.85,90.78 -69.08,112.41 -176.83,246.25 -277.67,296.76 71.04,28.14 117.78,41.29 209.2,70.47 85.83,-17.63 232.37,-86.24 354.57,-55.21 53.92,13.69 51.18,107.02 72.72,124.33 41.67,33.48 34.49,46.44 56.38,62.93 27.09,20.39 62.7,32.49 74.85,61.19 8.78,20.73 -48.96,19.45 -92.85,20.3 34,118.84 7.49,184.49 -0.6,296.46 -6.7,92.81 -5.1,187.88 -6.67,188.33 -11.84,3.48 -26.29,-14.6 -44.98,-59.79 -2.8,60.19 -11.42,82.81 -12.1,82.84 -21.37,0.92 -44.42,-50.54 -46.02,-134.61 -13.49,68.52 -23.62,120.61 -39.06,108.27 -12.93,-10.33 -18.56,-62.56 -32.49,-84.17 -8.05,-12.48 -9.06,18.17 -17.57,5.03 -13.71,-21.15 -18.82,-46.5 -30.69,-70.32 -6.36,-12.78 -14.41,-1.11 -30.17,-28.25 -9.56,-16.48 -11.87,-41.6 -19.87,-57.37 -6.22,-12.25 -20.17,-14.73 -27.35,-26.32 -8.18,-13.2 -9.67,-35.52 -17.46,-49.03 -6.11,-10.59 -19.06,-13.02 -25.8,-22.76 -5.8,-8.38 -5.45,-24.23 -10.89,-32.26 -6.41,-9.48 -12.31,-18.84 -17.08,-28.3 -8.46,-16.8 -8.25,-39.11 -16.99,-47.15 -12.56,-11.56 -67.69,66.13 -233.17,95.08 -88.43,15.47 -203.39,9.57 -286.57,-7.19 -29.52,-5.94 -24.95,9.58 -50.72,9.53 -17.5,-0.03 -49.85,-11.66 -68.61,-12.04 -15.04,-0.31 -45.17,13.68 -60.29,13.26 -12.7,-0.35 -7.33,-11.79 -16.59,-16.09 -11.12,-5.18 -36.74,-3.61 -51.61,-7.1 -14.34,-3.36 -38.63,-5.63 -46.02,-12.63 -23.46,-22.22 -19.36,-78.59 40.3,-118.22 45.96,-30.52 104.28,-36.57 146.21,-66.68 12.53,-8.66 -7.96,-15.89 -3.05,-44.58 -5.81,-3.41 -19.19,-1.57 -24.52,-6.14 -5.42,-4.65 -10.52,-21.09 -15.47,-26.77 -7.1,-8.15 -18.52,-4.7 -25.67,-12.39 -6.93,-7.46 -2.8,-12.34 -9.7,-23.08 -3.2,-4.99 -15.76,-0.78 -22.05,-7.04 -12.06,-12 -6.44,-23.01 -11.15,-27.19 -5.21,-4.63 -17.42,-2.42 -23.07,-6.45 -11.66,-8.32 -3.95,-18.44 -9.52,-23.83 -4.81,-4.66 -15.96,-1.14 -20.54,-5.72 -4.17,-4.17 -1.84,-16.49 -5.77,-20.53 -4.92,-5.04 -14.67,-6.63 -19.15,-11.34 -7.49,-7.87 -9.33,-18.57 -15.33,-25.08 -15.4,-16.72 -23.5,-29.71 -30.69,-26.02 -7.27,3.74 -9.57,13.33 -13.83,17 -7.39,6.38 -15.44,6.68 -27.34,12.99 -50.75,26.94 -118.41,52.34 -204.49,58.32 -97.46,69.72 -223.77,185.52 -223.77,155.04 0,-31.28 63.36,-121.91 222.5,-213.79 115.81,-66.85 530.72,-232.07 660.26,-203.59 40.07,8.8 9.03,79.09 44.8,71.41 4.87,-13.11 18.42,-28.48 27.46,-39.68 5.7,-7.06 5.28,-15.82 8.47,-24.53 2.76,-7.53 13.48,-11.91 21.82,-25.12 11.43,-18.13 6.64,-29.69 29.76,-51.16 7.78,-7.22 -1.95,-20.47 8.73,-35.49 9.65,-13.57 36.67,-31.1 44.35,-42.2 14.41,-20.81 44.98,-94.89 89,-139.13 16.17,-16.25 -4.63,-29.89 22.31,-51.87 23.49,-19.17 81.98,-10.3 91.12,-20.52 20.37,-22.77 43.54,-30.2 65.71,-45.11 67.66,-45.5 106.8,-79.87 166.58,-95.61 162.97,-42.91 288.29,-78.46 416.12,-65.44 126.95,12.93 161.13,100.7 248.09,140.5 83.74,38.33 152.78,1.76 231.35,15.85 29.43,5.28 71.97,43.51 111.46,69.84 35.09,23.4 69.1,35.02 69.84,42.43z"/> <path class="fil0" d="M297.7 2021.02c6.41,0 33.67,120.14 114.91,196.83 152.91,144.33 316,169.16 511.04,309.86 86.3,62.25 159.47,143.91 256.89,192.38 120.22,59.8 176.62,35.75 247.61,49.24 40.02,7.6 31.83,27.89 61.57,26.93 22.82,-0.74 74.4,-21.18 116,-26.11 62.49,-7.42 86.19,-7.92 124.61,-17.26 65.44,-15.92 160.76,-59.09 232.89,-82.36 26.17,-8.44 61.04,-16.97 89,-21.82 10.58,-1.84 12.29,1.78 23.7,-1.09 6.24,-1.56 4.51,-7.19 11.86,-10.5 16.12,-7.26 42.28,-13.76 54.11,-14.86 24.44,-2.28 26.85,22.67 47.96,15.68 6.47,-3.83 -11.12,-13.94 10.7,-22.83 16.2,-6.59 39.3,-15.92 55.57,-16.12 10.51,-0.13 14.43,9.77 24.57,5.58 17.25,-7.13 39.23,-18.75 54.79,-21.1 10.59,-1.6 15.37,6.77 24.78,1.54 42.88,-23.87 77.78,-56.94 77.78,-52.87 0,64.87 -59.69,154.68 -172.92,198.88 -97.74,38.15 -248.88,26.44 -339.45,54.35 53.08,19.74 103.24,35.91 90.8,55.59 -14.51,22.94 -54.83,11.47 -84.39,17.59 -30.45,6.31 -49.09,14.01 -81.94,15.75 -63.4,3.36 -116.63,-5.78 -152.59,-5.78 -73.87,0 -229.64,175.76 -406.72,228.01 -42.62,12.57 -117.59,29.39 -164.64,32.15 -86.39,5.06 -139.64,-11.41 -156.21,-5.91 -10.83,3.6 -8.7,11.59 -40.97,17.68 -50.18,9.47 -133.82,7.22 -149.98,7.41 -72.77,0.86 -54.06,-26.29 -66.46,-43.8 -9.72,-13.73 -55.83,-15.65 -64.7,-32.98 -9.11,-17.8 -78.99,-74.72 -22.94,-99 74.17,-32.13 281.36,-32.74 281.36,-61.66 0,-50.02 -91.12,-102.72 -184.46,-178.89 -8.43,-6.88 -15.51,-18.6 -24.22,-26.3 -6.63,-5.85 -15.3,-7.47 -19.96,-14.12 -4.58,-6.53 -0.27,-16.47 -5.9,-22.2 -5.45,-5.55 -21.57,-4.58 -26.94,-10.26 -5.01,-5.31 -2.8,-17.2 -8.72,-22.26 -5.41,-4.63 -18.05,-7.98 -24.68,-14 -5.22,-4.74 -4.23,-12.35 -10.28,-15.58 -7.83,-4.19 -17.8,-1.8 -25.06,-6.21 -5.37,-3.27 -5.41,-8.81 -10.8,-11.97 -7.13,-4.17 -18.16,-4.33 -24.2,-9.11 -5.72,-4.52 -6.04,-12 -10.7,-17.07 -5.48,-5.94 -20.02,-7.49 -24.93,-12.88 -3.76,-4.13 -2.62,-15.47 -5.66,-19.54 -3.65,-4.9 -19.67,-4.09 -23.26,-8.33 -5.8,-6.87 -1.63,-12.41 -5.04,-19.91 -1.88,-4.13 -9.71,-4.25 -13.7,-8.85 -5.04,-5.8 -6.62,-16.15 -11.81,-21.44 -8.42,-8.57 -29.54,-15.59 -37.35,-26.11 -8.69,-11.71 1.57,-14.63 -6.57,-26.4 -3.39,-4.92 -29,-17.78 -36.54,-29.38 -5.19,-7.98 9.2,-13.98 0.69,-22.1 -12.21,-11.66 -37.33,-19.56 -44.44,-29.73 -9.61,-13.74 21.91,-20.73 5.1,-26.6 -27.52,-9.61 -67.4,-43.56 -37.53,-49.88 19.15,-4.05 -28.9,-9.21 -47.07,-58.35 -2.96,-7.99 -29.74,-18.8 -39.02,-28.1 -21.13,-21.17 -25.61,-29.67 -21.67,-31.34 9.13,-3.86 22.3,3.51 19.89,-0.04 -13.99,-20.6 -26.59,-30.89 -34.56,-45.41 -2.28,-4.16 11.59,1.39 12.28,-4.61 0.7,-6.15 -11.73,-23.83 -11.66,-24.26 0.43,-2.5 34.57,14.91 61.39,36.32 44.1,35.2 90.51,82.19 97.83,76.38 5.36,-4.24 -54.93,-60.91 -85.76,-100.78 -21.8,-28.19 -19.78,-46.22 -9.67,-39.32 10.84,7.39 22.28,25.12 45.15,52.32 34.87,41.48 82.08,95.23 82.07,90.9 -7.25,-10.44 -30.37,-44.94 -49.1,-86.09 -15.82,-34.73 -30.29,-77.9 -11.74,-77.9z"/> <path class="fil0" d="M3089.6 559.97c28.95,35.62 58.45,162.48 13.56,292.52 -13.72,39.76 -39.31,55.35 -67.76,99.8 -19.87,31.06 -11.09,42.53 -34.29,73.2 -32.06,42.41 -108.35,54.14 -153,89.51 -78.04,61.8 -123.14,142.04 -123.14,198.63 0,21.09 73.21,8.55 180.28,-18.03 53.48,-13.27 130.76,-46.42 180.94,-47.94 49.35,-1.49 77.14,39.41 105.92,59.19 34.91,23.99 68.61,19.18 63.11,38.03 -6.67,22.87 -35.72,21.79 -65.68,28.4 -32.5,7.17 -66.86,21.35 -119.22,22.92 -49.63,1.48 -105.43,-8 -165.86,12.25 -110.17,36.91 -194.57,112.27 -290.31,167.35 -79.55,45.78 -175.24,73.91 -224.46,75.63 -223.75,7.83 -174.39,-27.53 -266.36,-21.24 -94.03,6.44 -209.64,46.19 -252.33,-3.16 -8.02,-9.27 19.34,-30.98 13.26,-43.35 -9.47,-19.23 -119.58,17.54 -119.58,-12.88 0,-36.51 320.73,-99.36 285.57,-210.2 -43.79,-138.06 -153.2,-244.3 -268.04,-397.93 -4.96,-6.64 -20.65,-2.66 -27.36,-20.2 -2.93,-7.67 1.98,-19.22 -2.83,-26.06 -7.78,-11.06 -21.74,-10.2 -28.48,-23.05 -10.01,-19.09 -12.59,-52.44 -24.07,-70.53 -49.75,-78.41 -114.32,-163.9 -163.71,-243.39 -57.07,-91.83 -97.59,-176.74 -130.96,-250.43 -11.78,-26.02 -21.33,-50.29 -28.05,-72.28 -4.15,-13.56 27.47,22.85 64.17,49.19 13.62,9.78 19.23,-1.05 31.8,4.66 18.99,8.63 42.61,30.64 43.99,24.88 2.5,-10.45 -43.11,-48.27 -64.24,-82.6 -34.78,-56.54 -52.7,-116.07 -45.77,-120.12 7.04,-4.11 129.41,185.23 154.6,185.56 -48.6,-48.65 -100.23,-224.13 -58.04,-185.87 39.57,35.88 49.17,142.66 103.13,204.13 149.96,170.81 379.21,360.93 523.38,543.54 88.92,112.63 134.46,169.88 215.97,277.54 11.94,-2.89 22.03,-0.31 28.68,-15.09 4.64,-10.31 14.89,-11.41 28.43,-22.2 6.38,-5.08 7.01,-12.68 14.61,-20.29 4.15,-4.15 11.12,1.11 17.33,-2.66 4.8,-2.91 8.93,-15.06 12.44,-17.31 9.54,-6.11 11.26,-0.87 22.3,-7.46 4.63,-2.77 3.48,-9.92 9.79,-14.7 4.95,-3.76 14.89,2.26 21.46,-0.6 7.17,-3.11 10.98,-15.03 14.95,-16.87 6.4,-2.97 12.74,1.93 18.77,-1.71 6.67,-4.01 6.51,-10.54 15.66,-17.58 7.62,-5.86 18.7,-2.36 27.99,-7.81 7.01,-4.12 7.8,-12.31 13.18,-17.7 4.4,-4.41 13.76,-6.47 16.55,-7.19 13.06,-3.39 12.04,-15.51 20.61,-24.56 6.41,-6.76 11.96,-5.59 20.19,-12.38 6.54,-5.38 3.91,-14.86 9.8,-21.13 5.32,-5.66 19.16,-8.16 25.06,-12.95 14.76,-12 29.98,-23.98 45.35,-35.87 8.71,-6.74 10.48,-21.27 19.28,-27.96 9.62,-7.33 27.02,-6 35.9,-14.13 6.85,-6.27 5.98,-19.73 14.29,-28.65 9.75,-10.47 28.83,-16.5 38.26,-23.79 14.8,-11.44 -1.39,-10.66 33.91,-41.48 18.86,-16.48 24.73,-2.15 34.48,-10.6 8.73,-7.57 11.53,-26.92 23.15,-37.24 17.83,-15.83 33.73,-3.52 40.44,-9.76 8,-7.43 1.13,-19.94 19.7,-36.63 9.16,-8.24 24.23,1.42 31.58,-6.5 9.72,-10.47 -3.7,-20.19 19.81,-37.13 7.25,-5.22 25.83,-1.18 29.9,-6.63 5.46,-7.31 -0.42,-19.19 2.23,-25.11 6.37,-14.27 15.99,-18.26 17.8,-16.02z"/> </g> </g> </svg>