<?xml version='1.0' encoding='utf-8'?>
<svg xmlns="http://www.w3.org/2000/svg" version="1.1" id="Слой_1" x="0px" y="0px" viewBox="0 0 1920 1080" style="enable-background:new 0 0 1920 1080;"> <style type="text/css"> .st0{fill:#EDF2F7;} .st1{fill:#CED1ED;} .st2{fill:#EDE9F7;} </style> <g> <g id="XMLID_00000009591251495722226050000017490798364233218703_"> <g> <path class="st0" d="M1881.3,461.5c0.2,3.3-1,6.7-3,9.6c-5.5-2.3-11.6-6.5-22.8-5.9c-11.7,0.6-15.2,5.7-25.8,3.7 c-9-1.7-8.8-5.8-18.5-7.4c-10.8-1.8-13.5,2.9-22.2,0c-8.3-2.7-9.9-8.3-14.8-7.4c-5.2,1-4.6,7.5-11.1,11.1 c-6.9,3.8-17.8,2.1-22.2-3.7c-4.1-5.4,0.2-10.6-3.7-14.8c-4.7-4.9-12.3,1-22.2-3.7c-6.2-3-12.1-9.6-11.1-14.8 c1.1-5.9,10.5-6.1,11.1-11.1c0.6-5.4-9.2-13.1-14.8-11.1c-5.1,1.9-3.1,10.6-5.5,20.9c-1,4-2.6,8.2-5.5,12.4 c-5.2,7.2-15.2,15.2-25.8,14.8c-6.2-0.3-7.4-3.2-22.2-7.4c-11.3-3.2-11.5-1.7-14.8-3.7c-14.3-8.6-10.8-36.8-14.8-36.9 c-1.9-0.1-1.8,6.6-7.4,14.8c-6.5,9.5-15.7,13.6-18.5,14.8c-8,3.4-9,1-14.8,3.7c-14.1,6.5-11.6,22.7-22.2,25.8 c-8.8,2.7-22-5.4-25.8-14.8c-2.1-5.2-1-9.9-3.7-11.1c-3.7-1.6-7.4,6.3-14.8,7.4c-9.9,1.5-23.2-9.6-22.2-18.5 c0.8-7.2,11-11.6,18.5-14.8c12.3-5.3,22-4.9,22.2-7.4c0.2-3.4-17.6-4.7-18.5-11.1c-0.5-3.4,4.3-6.3,11.1-11.1 c18.8-13.3,30.2-21.5,33.2-33.2c2-7.9,0.1-17.2-3.7-18.5c-3.9-1.3-7,6.9-14.8,11.1c-15.4,8.3-28.7-9.7-48-7.4 c-23,2.8-22,30.4-51.7,40.6c-16.5,5.7-39.2,4.9-48-7.4c-6.6-9.3-4.5-24.3,0-25.8c4.8-1.7,9.5,13,22.2,14.8 c11.3,1.6,23-7.8,22.2-11.1c-0.6-2.1-5.8-0.3-11.1-3.7c-7.5-4.8-11.3-17.6-7.4-25.8c6-12.6,29.8-12.7,29.5-14.8 c-0.2-1.6-14.4,2.8-25.8-3.7c-11.9-6.8-19.4-24.6-14.8-36.9c4.1-10.8,16.1-13.9,14.8-18.5c-1.3-4.3-12-0.8-22.2-7.4 c-10.5-6.8-13.4-20-14.8-25.8c-4.1-18.3,2.4-32.5,0-33.2c-2.2-0.7-7.9,10.9-11.1,18.5c-5.1,12.3-8.3,20-7.4,29.5 c1.6,16.2,13.3,19.6,11.1,29.5c-2.8,12.5-22.9,14.7-22.2,22.2c0.5,5.1,9.9,4.9,22.2,14.8c9.3,7.5,17.2,18.2,14.8,22.2 c-2.1,3.4-10-1-14.8,3.7c-4.5,4.4-0.4,11-3.7,14.8c-7.3,8.2-39.5-9.6-40.6-7.4c-0.8,1.5,15.9,7.4,22.2,22.2 c5.2,12.4,1.8,28-3.7,29.5c-5.8,1.6-11.3-12.7-18.5-11.1c-6.3,1.4-4.4,13.1-14.8,22.2c-1.1,1-8.5,7.2-18.5,7.4 c-11,0.2-12.8-7.2-22.2-7.4c-14.8-0.3-24.8,17.8-29.5,14.8c-3.1-2,1.1-9.8-3.7-14.8c-2.9-3-5.7-1.4-11.1-3.7 c-9.8-4.3-13.9-15.9-14.8-18.5c-3.1-9.5,0.3-14.1-3.7-18.5c-4.8-5.2-12.8-2-14.7-3.6c8.5-13,22.1-19.5,23.9-20.4 c6-2.8,18.2-8.4,29.5-3.7c10.8,4.5,11.1,14.3,18.5,14.8c9.4,0.6,10.8-15.5,27.7-24c12.7-6.4,18.3-0.5,25.8-7.4 c8.2-7.6,2.1-15.2,11.1-33.2c6.1-12.3,11.9-14.4,11.1-22.2c-0.8-8-7.5-10.3-7.4-18.5c0.1-5.9,3.7-8.5,7.4-14.8 c8.5-14.4,2.5-22.9,7.4-33.2c7.8-16.5,36.6-24.1,59.1-18.5c12.7,3.2,33.1,13,36.9,29.5c2.8,12.4-5.7,19.4,0,29.5 c5.1,9.1,14.6,8,18.5,18.5c2.6,7,0,11.8,3.7,14.8c4,3.1,8.2-1.1,14.8,0c13.5,2.4,14.6,24.1,25.8,25.8c5.8,0.9,7.5-4.7,18.5-11.1 c15.2-8.8,38.3-13.1,48-3.7c5.5,5.3,1.2,9.7,7.4,18.5c8.1,11.4,18.2,7.6,25.8,18.5c6.7,9.5,0.9,15.3,7.4,22.2 c9,9.5,23.9,2.1,29.5,11.1c3.9,6.2-1.6,12.6,3.7,18.5c3.5,4,7.4,2.7,11.1,7.4c3.6,4.7,1.1,7.5,3.7,11.1 c6.1,8.3,24.2-1.7,33.2,7.4c4.2,4.2,2.6,8.8,7.4,11.1c5.1,2.4,8.7-2,14.8,0c5.9,2,4.9,7,11.1,11.1c8.2,5.4,13.8-0.8,22.2,3.7 c9.4,5.1,6.9,15.7,14.8,18.5c6.7,2.4,9.9-4.8,22.2-7.4c12.9-2.7,29.3,1,36.9,11.1c5.1,6.7,2.3,11.1,7.4,14.8 c7.5,5.5,15.6-2.9,29.5,0C1868.4,444.9,1880.7,451.8,1881.3,461.5z M1611.8,350.8c3.4-4.9-7.9-21.8-22.2-25.8 c-5.2-1.5-10.7-1.2-11.1,0c-0.4,1.6,7.9,4.4,7.4,7.4c-0.3,1.6-3,1.7-3.7,3.7c-1,2.7,2.7,6.4,3.7,7.4 C1593.3,350.7,1608.8,355.2,1611.8,350.8z M1512.1,306.4c0.8-2.5-1.9-5.4-3.7-7.4c-2.4-2.5-7.5-8-14.8-7.4 c-4.4,0.4-10.4,3.1-11.1,7.4c-0.7,5,6.4,9.6,11.1,11.1c4.4,1.4,8.3,0.6,11.1,0C1507.9,309.4,1511.3,308.7,1512.1,306.4z M1301.7,354.4c1.2-0.9,8.8-6.6,7.4-11.1c-1.3-4-9.3-6-14.8-3.7c-3.2,1.4-3.7,3.4-7.4,7.4c-7.9,8.5-15.2,9.1-14.8,11.1 C1272.8,361.1,1290,363.2,1301.7,354.4z"/> <path class="st1" d="M1878.3,471.1c-2.8,4.1-7.3,7.4-11.7,8.9c-7.5,2.4-10.1-2.2-18.5,0c-9.9,2.6-10.4,10.1-18.5,11.1 c-7.2,0.8-8.6-4.9-18.5-7.4c-11.3-2.8-16.2,3.1-29.5,3.7c-14.6,0.7-15-6-29.5-7.4c-27.8-2.6-45.8,20.2-59.1,11.1 c-4.3-3-3.3-5.9-7.4-7.4c-10.7-3.8-18.2,16.6-36.9,18.5c-11.6,1.2-14.7-6-29.5-3.7c-5.3,0.8-9,2.4-16.6,5.5 c-13.5,5.6-16.2,10-25.8,11.1c-6.4,0.7-7.3-0.6-14.8,0c-17.2,1.4-19.9,8.9-29.5,7.4c-10-1.6-10.1-10.2-22.2-14.8 c-7.3-2.8-14.7-2.4-25.8,0c-41.6,9.2-48.3,28.4-70.2,25.8c-17.7-2.1-20.7-15.5-40.6-14.8c-11.5,0.4-11.7,5-25.8,7.4 c-4.1,0.7-32.3,5.1-51.7-11.1c-11.8-9.8-8-16.9-18.5-22.2c-15.4-7.7-29.4,5.2-40.6-3.7c-6.8-5.3-3.1-11-11.1-18.5 c-9.3-8.7-17-3.5-25.8-11.1c-8.1-7-9.4-18-11.1-33.2c-1.4-12.6,0.5-13.8,0-29.5c-0.8-27.1-6.7-28.4-3.7-40.6 c1.2-4.8,3.2-9.1,5.6-12.8c1.8,1.6,9.9-1.6,14.7,3.6c4,4.3,0.6,9,3.7,18.5c0.8,2.6,4.9,14.2,14.8,18.5c5.4,2.3,8.2,0.7,11.1,3.7 c4.8,4.9,0.6,12.8,3.7,14.8c4.8,3,14.8-15.1,29.5-14.8c9.4,0.2,11.2,7.6,22.2,7.4c10-0.2,17.4-6.4,18.5-7.4 c10.4-9.1,8.5-20.7,14.8-22.2c7.1-1.6,12.7,12.7,18.5,11.1c5.5-1.6,8.9-17.2,3.7-29.5c-6.2-14.7-22.9-20.7-22.2-22.2 c1.1-2.2,33.3,15.5,40.6,7.4c3.3-3.7-0.8-10.4,3.7-14.8c4.8-4.7,12.7-0.3,14.8-3.7c2.4-4-5.5-14.7-14.8-22.2 c-12.3-9.9-21.6-9.7-22.2-14.8c-0.7-7.5,19.4-9.7,22.2-22.2c2.2-9.9-9.5-13.3-11.1-29.5c-0.9-9.6,2.3-17.3,7.4-29.5 c3.2-7.6,8.9-19.2,11.1-18.5c2.4,0.8-4.1,15,0,33.2c1.3,5.9,4.2,19,14.8,25.8c10.2,6.6,20.9,3.1,22.2,7.4 c1.4,4.5-10.7,7.6-14.8,18.5c-4.7,12.3,2.8,30.1,14.8,36.9c11.4,6.5,25.6,2.1,25.8,3.7c0.3,2-23.5,2.1-29.5,14.8 c-3.9,8.2-0.1,21,7.4,25.8c5.2,3.4,10.5,1.6,11.1,3.7c0.8,3.2-10.9,12.7-22.2,11.1c-12.7-1.8-17.3-16.5-22.2-14.8 c-4.5,1.6-6.6,16.5,0,25.8c8.8,12.3,31.5,13.1,48,7.4c29.6-10.2,28.7-37.8,51.7-40.6c19.3-2.3,32.6,15.7,48,7.4 c7.8-4.2,10.9-12.4,14.8-11.1c3.8,1.3,5.7,10.5,3.7,18.5c-3,11.7-14.4,20-33.2,33.2c-6.8,4.8-11.6,7.6-11.1,11.1 c0.9,6.4,18.7,7.7,18.5,11.1c-0.2,2.5-9.9,2.1-22.2,7.4c-7.5,3.2-17.6,7.6-18.5,14.8c-1,8.8,12.3,19.9,22.2,18.5 c7.4-1.1,11-9,14.8-7.4c2.7,1.2,1.6,5.8,3.7,11.1c3.8,9.4,17,17.4,25.8,14.8c10.5-3.1,8-19.3,22.2-25.8c5.8-2.7,6.8-0.3,14.8-3.7 c2.8-1.2,12-5.3,18.5-14.8c5.6-8.2,5.5-14.8,7.4-14.8c4,0.1,0.5,28.3,14.8,36.9c3.3,2,3.4,0.5,14.8,3.7 c14.8,4.2,15.9,7.1,22.2,7.4c10.6,0.4,20.7-7.5,25.8-14.8c3-4.1,4.6-8.3,5.5-12.4l9.2,1.3c-1,5.2,4.8,11.8,11.1,14.8 c9.8,4.7,17.5-1.3,22.2,3.7c3.9,4.1-0.4,9.4,3.7,14.8c4.4,5.8,15.2,7.5,22.2,3.7c6.5-3.6,5.9-10.1,11.1-11.1 c4.9-1,6.5,4.7,14.8,7.4c8.7,2.9,11.3-1.8,22.2,0c9.7,1.6,9.4,5.7,18.5,7.4c10.6,2,14.2-3.1,25.8-3.7 C1866.7,464.6,1872.8,468.8,1878.3,471.1z"/> <path class="st1" d="M1700.4,406.1c5.6-2.1,15.3,5.7,14.8,11.1c-0.6,5-9.9,5.2-11.1,11.1l-9.2-1.3 C1697.3,416.8,1695.4,408,1700.4,406.1z"/> <path class="st1" d="M1589.6,324.9c14.2,4,25.5,20.9,22.2,25.8c-3,4.4-18.5-0.1-25.8-7.4c-1-1-4.7-4.7-3.7-7.4 c0.7-2,3.4-2.1,3.7-3.7c0.5-3-7.8-5.8-7.4-7.4C1578.9,323.7,1584.4,323.4,1589.6,324.9z"/> <path class="st1" d="M1508.4,299.1c1.8,2,4.5,4.9,3.7,7.4c-0.8,2.3-4.2,3-7.4,3.7c-2.8,0.6-6.6,1.4-11.1,0 c-4.7-1.5-11.8-6.1-11.1-11.1c0.6-4.3,6.7-7,11.1-7.4C1500.9,291,1506,296.5,1508.4,299.1z"/> <path class="st1" d="M1309,343.4c1.4,4.5-6.2,10.2-7.4,11.1c-11.7,8.8-28.9,6.6-29.5,3.7c-0.4-2,6.8-2.6,14.8-11.1 c3.7-4,4.2-6,7.4-7.4C1299.7,337.3,1307.8,339.3,1309,343.4z"/> </g> </g> </g> <g> <path class="st1" d="M1036,411.4c-0.4,2.7-1.4,5-3,6.5c-3.5,3.2-11,2.1-25.8,0c-4.1-0.6-7.1-1.2-11.1,0c-5.9,1.8-7.5,5.7-11.1,7.4 c-7.5,3.5-12.4-9-25.8-11.1c-7.1-1.1-7.1,1.8-16.6,1.8c-15,0-19.3-7.2-29.5-7.4c-13.7-0.2-14.5,12.7-29.5,18.5 c-28,10.7-58.9-21.6-88.6-18.5c-2.7,0.3-7.8,1.1-14.8,0c-11.5-1.8-14.5-6.9-22.2-7.4c-10.2-0.6-12,7.9-22.2,11.1 c-23.1,7.1-45.3-27-62.8-18.5c-5.6,2.8-3.4,6.4-11.1,11.1c-13.8,8.5-26.5,0-33.2,7.4c-5.3,5.8,1.1,12.7-3.7,22.2 c-4.8,9.3-17.9,16-29.5,14.8c-19.8-2.1-24.8-26.3-44.3-25.8c-7.4,0.2-6.8,3.7-14.8,3.7c-17,0.1-23.1-15.7-36.9-14.8 c-7.4,0.5-7.8,5.2-18.5,11.1c-14.8,8.2-38.3,12.5-55.4,3.7c-15.7-8.1-12.9-20.6-29.5-25.8c-9.3-2.9-16.3-1.1-22.2-7.4 c-5.5-5.9-2.5-11.2-7.4-14.8c-7.9-5.9-19.3,5.2-29.5,0c-6.8-3.4-4.8-9.7-11.1-18.5c-11.8-16.3-29.6-9.4-40.6-22.2 c-14.1-16.3-1.8-47.1,0-51.7c1.4-3.7,15.1-36.9,40.6-40.6c0.1,0,0.2,0,0.3,0c-1.2,4.4-2.5,9.3-4,14.8c-3.7,13.8-3.8,16.4-3.7,18.5 c0.4,13.9,8.4,31.2,22.2,36.9c9.1,3.8,12.1-1,29.5,3.7c8.3,2.3,9.6,3.9,14.8,3.7c11.3-0.5,14.5-8.6,22.2-7.4 c5.5,0.9,6.5,5.6,14.8,14.8c1,1.1,10.2,11.2,22.2,18.5c6.5,4,18.2,11,33.2,11.1c13.3,0,15.7-5.4,29.5-3.7c8.2,1,9.9,3.3,18.5,3.7 c9.6,0.5,16.9-1.9,22.2-3.7c8.9-3,29.9-10.1,33.2-25.8c0.4-1.7,0.8-4.3,0-7.4c-1.7-6-7.9-11-15.4-13.7c-0.1-4.3-1.2-8.5-3.1-12.1 c-6.2-11.9-22-17.6-33.2-14.8c-6.5,1.6-5.9,4.6-14.8,7.4c-11,3.4-15.2-0.2-22.2,3.7c-5.9,3.3-5.6,7.6-11.1,14.8 c-3.8,5-8,8.2-11.9,10.6c-0.7-1.1-1.7-2.2-2.9-3.2c-7.1-5.7-13.5-0.7-25.8-3.7c-11.2-2.7-18.1-9.9-29.5-22.2 c-11.3-12.1-13.8-18.4-22.2-29.5c-1-1.4-7.5-10-16-19c2.3-1.4,4.9-2.7,8.6-3.1c7.2-0.8,11.1,2.3,14.8,0c0.2-0.1,0.4-0.2,0.5-0.4 c1.6,5.1,3.2,7.8,3.2,7.8c7,12.4,17.1,19,22.2,22.2c21.6,13.6,54,17.8,73.8,3.7c9.1-6.4,9.3-12.3,18.5-14.8 c13.3-3.7,22.3,5.9,33.2,0c6.5-3.5,4.2-7.4,11.1-11.1c9.6-5.1,15.9,1.4,29.5-3.7c4.5-1.7,8.8-3.2,11.1-7.4 c3.3-5.9,0.1-12.2,3.7-14.8c1.6-1.1,3.5-0.7,7.4,0c3.7,0.7,10.6,2,14.8,7.4c0.8,1,1.8,2.6,3.7,11.1c3,13.6,1.6,14.6,3.7,18.5 c3.6,6.6,11.6,10.6,18.5,11.1c8.9,0.7,10.7-4.9,18.5-3.7c8.3,1.3,8.2,7.9,18.5,11.1c1.6,0.5,9.9,3.1,18.5,0c7.2-2.6,8.5-7,14.8-7.4 c1.2-0.1,4.2-0.1,11.1,3.7c4.8,2.7,12.7,6.9,18.5,14.8c10.7,14.5,2.1,24.7,11.1,33.2c8.8,8.3,21.6,2.8,25.8,11.1 c2.7,5.2-2,8.5,0,14.8c3.5,11.2,24.1,19.3,40.6,14.8c12.5-3.4,13.5-11.6,22.2-11.1c12.9,0.8,13.9,19,29.5,22.2 c11.3,2.3,19.2-5.5,25.8,0c4.5,3.7,2.8,8.8,7.4,11.1c5.4,2.7,9.4-3.4,18.5-3.7c9.6-0.3,10.9,6.3,25.8,11.1 c11.4,3.7,11.1,0,22.2,3.7c12.1,4.1,14.5,9.2,25.8,11.1c7.6,1.3,8-0.8,14.8,0C1026.6,405.8,1031.7,408.4,1036,411.4z"/> <path class="st0" d="M580.7,331.1c-3.3,15.8-24.4,22.9-33.2,25.8c-5.2,1.8-12.6,4.2-22.2,3.7c-8.5-0.4-10.2-2.7-18.5-3.7 c-13.8-1.7-16.3,3.7-29.5,3.7c-15.1,0-26.7-7.1-33.2-11.1c-12-7.3-21.2-17.4-22.2-18.5c-8.3-9.2-9.3-13.8-14.8-14.8 c-7.6-1.3-10.9,6.9-22.2,7.4c-5.2,0.2-6.5-1.4-14.8-3.7c-17.4-4.7-20.5,0.1-29.5-3.7c-13.7-5.7-21.7-23-22.2-36.9 c-0.1-2.1,0-4.6,3.7-18.5c1.4-5.5,2.8-10.4,4-14.8c15.7-2.2,27.1,8,40.4,0c2.1-1.3,4-2.9,6.2-4.2c8.4,9,14.9,17.6,16,19 c8.3,11.1,10.9,17.5,22.2,29.5c11.4,12.2,18.3,19.4,29.5,22.2c12.3,3,18.8-2,25.8,3.7c1.2,1,2.2,2.1,2.9,3.2 c4.3,6.2,3.4,14,8.2,15.3c5.2,1.4,7.7-7.4,18.5-11.1c10.7-3.7,14.7,2.9,25.8,0c11.9-3,11-11.3,22.2-14.8c6.8-2.1,14.7-1.5,21.5,1 c7.5,2.7,13.7,7.7,15.4,13.7C581.6,326.8,581.1,329.4,580.7,331.1z"/> <path class="st2" d="M565.3,310c-6.8-2.5-14.7-3.1-21.5-1c-11.2,3.5-10.3,11.7-22.2,14.8c-11.2,2.9-15.2-3.7-25.8,0 c-10.7,3.7-13.2,12.5-18.5,11.1c-4.8-1.3-3.8-9.1-8.2-15.3c3.9-2.3,8-5.6,11.9-10.6c5.5-7.2,5.2-11.4,11.1-14.8 c6.9-3.9,11.2-0.3,22.2-3.7c8.9-2.8,8.3-5.8,14.8-7.4c11.3-2.8,27,2.9,33.2,14.8C564.1,301.5,565.2,305.7,565.3,310z"/> <path class="st0" d="M1036,411.4c-4.2-3.1-9.4-5.6-15.9-6.5c-6.7-0.8-7.1,1.3-14.8,0c-11.4-1.8-13.7-7-25.8-11.1 c-11-3.7-10.8,0-22.2-3.7c-15-4.8-16.2-11.4-25.8-11.1c-9,0.3-13.1,6.4-18.5,3.7c-4.5-2.3-2.9-7.4-7.4-11.1 c-6.6-5.5-14.6,2.3-25.8,0c-15.6-3.2-16.7-21.4-29.5-22.2c-8.7-0.5-9.6,7.6-22.2,11.1c-16.5,4.5-37.1-3.5-40.6-14.8 c-2-6.3,2.7-9.5,0-14.8c-4.2-8.3-17-2.8-25.8-11.1c-9-8.5-0.4-18.7-11.1-33.2c-5.8-7.8-13.6-12.1-18.5-14.8 c-6.9-3.8-9.9-3.8-11.1-3.7c-6.2,0.4-7.6,4.8-14.8,7.4c-8.6,3.1-16.9,0.5-18.5,0c-10.2-3.2-10.2-9.8-18.5-11.1 c-7.8-1.2-9.5,4.4-18.5,3.7c-6.9-0.5-14.8-4.5-18.5-11.1c-2.1-3.9-0.7-4.9-3.7-18.5c-1.9-8.5-2.9-10-3.7-11.1 c-4.2-5.4-11.1-6.7-14.8-7.4c-3.9-0.7-5.8-1.1-7.4,0c-3.6,2.5-0.4,8.9-3.7,14.8c-2.3,4.1-6.6,5.7-11.1,7.4 c-13.6,5.1-20-1.4-29.5,3.7c-6.9,3.7-4.5,7.6-11.1,11.1c-10.9,5.9-19.9-3.7-33.2,0c-9.2,2.5-9.4,8.3-18.5,14.8 c-19.9,14.1-52.2,9.9-73.8-3.7c-5.1-3.2-15.2-9.7-22.2-22.2c0,0-1.6-2.8-3.2-7.8c4-3.1,3.2-11,3.2-14.3c0-22.6,35.1-48,66.5-55.4 c11.8-2.8,38.8-9.1,51.7,3.7c2.5,2.4,5.6,6.8,11.1,7.4c7.2,0.8,14.5-5.2,18.5-11.1c5.9-8.8,2.2-14.3,7.4-18.5 c6.5-5.3,14.8,1.3,22.2-3.7c5.9-4,4.8-11.1,7.4-18.5c6.9-19.3,35-27.9,51.7-29.5c15.5-1.5,45.3,0.7,55.4,18.5 c6.4,11.2,1.8,23.2,11.1,29.5c6.5,4.4,10.6-0.3,18.5,3.7c13.8,6.9,10.7,26,22.2,29.5c6.1,1.9,7.7-3.3,18.5-3.7 c11.5-0.4,25.9,5,29.5,14.8c3,8.1-3.5,13.5,0,18.5c4.5,6.3,16.1-1.1,29.5,3.7c18.5,6.7,25.4,31.5,25.8,33.2 c4.9,18.8-2.7,33.5,3.7,36.9c3.3,1.8,6.3-1.8,14.8-3.7c8.1-1.8,22.2-2.3,29.5,3.7c14.7,12-3.1,45.7,11.1,55.4 c3.9,2.7,4.8-0.2,18.5,3.7c9.9,2.8,17.1,4.9,22.2,11.1c5.5,6.8,2.5,11.4,7.4,14.8c7,4.8,14.3-4,25.8,0c4.8,1.7,8.1,4.8,14.8,11.1 c7.6,7.2,6.9,9.2,11.1,11.1c8.9,4.1,15.2-3.5,22.2,0C1033.8,393.3,1037.1,403.9,1036,411.4z"/> </g> <g> <path class="st1" d="M969.6,750.1c-5.9-1.1-13.8-2.2-24.3-2.4c-3,0-8.1,0-18.5,0c-20.3,0.1-19.7,0.3-22.2,0 c-17.6-1.9-18.6-8.8-29.5-7.4c-10.5,1.4-12.7,8.2-22.2,7.4c-6.5-0.6-7.7-4-14.8-7.4c-18.5-8.9-30.3,4.7-51.7-3.7 c-8.6-3.4-7.6-5.9-14.8-7.4c-15.7-3.2-24.2,8.5-33.2,3.7c-7.9-4.2-5.6-15.2-14.8-18.5c-3.3-1.2-4.7-0.1-11.1,0 c-11,0.1-14.1-2.9-22.2-3.7c-15.9-1.6-18,8.8-33.2,7.4c-10.4-1-9.7-5.8-22.2-7.4c-14.1-1.8-18.2,4-25.8,0 c-8.3-4.2-6.1-12.3-14.8-18.5c-7.8-5.6-17.3-4.7-25.8-3.7c-21.1,2.4-24.2,10.9-40.6,14.8c-23.4,5.5-56.9-2.5-70.2-22.2 c-4.5-6.6-6.2-14-14.8-18.5c-8.5-4.5-14.2-1-22.2-3.7c-6.4-2.1-11.4-7.3-15.1-13.1c2.8-0.4,4.4-0.2,7.7-1.7 c15.1-6.6,10.9-24.6,25.8-33.2c8.4-4.8,18.5-4.2,25.8-3.7c12,0.8,12.2,4.3,18.5,3.7c18.2-1.7,19.1-31.5,40.6-36.9 c6.6-1.7,17.3-1.6,25.8,3.7c7.8,4.8,10.9,12.1,14.8,11.1c4-1.1,1.6-9.5,7.4-14.8c6.1-5.6,18.4-5.2,25.8,0 c5.9,4.1,5.1,8.7,11.1,11.1c5.1,2,7.9-0.4,14.8,0c8.5,0.5,10.7,4.6,18.5,7.4c17.1,6.2,25.3-6.7,36.9,0c9.5,5.5,14.1,20.2,14.8,22.2 c1.9,6.1,1.1,8.2,3.7,11.1c5.9,6.6,14.7,1.3,22.2,7.4c5.5,4.5,6.5,12.1,7.4,18.5c1.7,13.1-3.4,17.9,0,22.2 c5.2,6.5,18.1-3.2,29.5,3.7c9.7,5.9,5.4,16,14.8,22.2c12.4,8.2,27.1-4.9,36.9,3.7c6.7,5.9,3.7,15.3,11.1,18.5c4.7,2,7.1-1.4,14.8,0 c8.2,1.5,8.5,6,14.8,7.4c10.9,2.4,14.8-10.3,29.5-11.1c11.9-0.6,21.7,7,22.2,7.4c7.5,6,7.4,12,12.9,12.9c6.8,1.2,9.7-8.4,18.5-7.4 c5.5,0.7,6.4,3.7,14.8,7.4c12.7,5.6,20.1,2.8,22.2,7.4C969.9,747,970,748.5,969.6,750.1z"/> <path class="st0" d="M969.6,750.1c-0.8,3.8-4,8-7.6,10.5c-7.4,5.1-12.6,0.1-25.8,3.7c-11.2,3.1-11.4,7.7-18.5,7.4 c-10.7-0.4-12.8-11.2-22.2-11.1c-8.1,0.1-8.8,8.2-20.3,12.9c-10,4.1-19.5,2.1-29.5,0c-19.3-4-18.1-10.3-29.5-11.1 c-20.3-1.4-27.5,17.8-48,14.8c-5.7-0.8-10.1-3.1-18.5-7.4c-15.9-8.2-18.2-14.4-25.8-14.8c-9.9-0.5-11.9,9.6-25.8,18.5 c-20.8,13.1-53,13.9-66.5,0c-6.2-6.4-4.7-12.2-11.1-14.8c-9.9-4-16.8,8.5-33.2,7.4c-6.6-0.4-12.1-3-22.2-7.4 c-11.2-4.9-13.2-7.9-18.5-7.4c-8.1,0.7-9,8.2-18.5,14.8c-12,8.3-31.1,10.5-44.3,3.7c-11.1-5.7-14.1-15.9-22.2-14.8 c-4.3,0.6-4.2,3.5-11.1,7.4c-0.9,0.5-13.8,7.5-25.8,3.7c-8.9-2.8-7.8-8.5-14.8-11.1c-13.5-5.1-22.1,14.4-48,18.5 c-16.1,2.5-31.3-2-36.9-3.7c-12.4-3.7-10.8-6-18.5-7.4c-22-4-32.5,15.8-51.7,11.1c-10.7-2.6-8.3-8.9-18.5-11.1 c-19.3-4.1-30.1,18.2-51.7,14.8c-8.3-1.3-6.6-4.7-18.5-7.4c-17-3.9-23.6,2.1-33.2-3.7c-8-4.9-5.9-10.6-14.8-14.8 c-7.2-3.4-10.2-0.3-18.5-3.7c-7.5-3-15.9-9.9-14.8-14.8c0.8-3.4,5.9-5.2,10.9-6.2c3.5,2.1,7.3,4.2,11.2,6.2 c6.9,3.7,12.4,5.4,18.5,7.4c11.1,3.6,16.8,5.4,22.2,3.7c5.2-1.6,7.2-4.7,11.1-3.7c3.6,0.9,3.9,4.1,7.4,7.4 c6.4,6.1,18.3,7.7,25.8,3.7c6.9-3.7,5.4-9.5,11.1-11.1c6.7-1.8,10.1,6.1,22.2,7.4c1.5,0.1,12.2,1.4,14.8-3.7 c1.6-3.2-0.3-8.3-3.7-11.1c-5.8-4.7-12.4,0.8-18.5-3.7c-4.8-3.6-2.7-8.6-7.4-11.1c-4.8-2.5-8,2-14.8,0c-5.4-1.6-5.5-5.1-11.1-7.4 c-5.6-2.3-9.7-0.4-14.8,0c-4.8,0.4-8.5-0.7-11.9-2.6c0.3-0.3,0.6-0.7,0.8-1.1c2.8-3.8,3.1-8,3.7-14.8c0.7-8.3-0.4-9.5,0-14.8 c0.1-1.3,0.3-3.5,0.7-6.1c2.3,0.9,4.6,1.7,6.6,2.4c5.8,1.8,10.9,2.6,14.8,7.4c4.9,6,2.7,12.1,7.4,14.8c4.4,2.5,7.6-2,14.8,0 c5.2,1.4,5.1,4.2,11.1,7.4c7.3,3.8,9.9,1,18.5,3.7c10.6,3.4,9.3,8.6,18.5,11.1c8.9,2.4,12-2.2,22.2,0c6.7,1.4,9.4,4.4,14.8,7.4 c13.7,7.8,36.2,11.8,51.7,3.7c11.5-6,14.3-16.1,22.2-14.8c5.8,1,7.6,7,14.8,7.4c4.4,0.3,5.9-1.9,11.1-3.7c14.7-5,27.5,3.8,29.5,0 c1-1.9-1.5-5.5-3.7-7.4c-3.8-3.2-6.9-1-11.1-3.7c-4.1-2.7-3.2-6.1-7.4-11.1c-4-4.7-8.7-6.3-11.1-7.4c-3.6-1.6-7-4.4-10.1-7.8 c3-0.8,5.3-1,6.4-3.3c2.2-4.4-4.8-8.1-3.7-14.8c1.3-8,12.8-12.5,18.5-14.8c3.2-1.3,5.4-1.8,7.1-2c3.7,5.8,8.8,11,15.1,13.1 c7.9,2.7,13.6-0.8,22.2,3.7c8.5,4.5,10.3,11.8,14.8,18.5c13.3,19.6,46.7,27.6,70.2,22.2c16.4-3.8,19.5-12.4,40.6-14.8 c8.5-1,18.1-1.9,25.8,3.7c8.6,6.2,6.5,14.2,14.8,18.5c7.7,4,11.8-1.8,25.8,0c12.4,1.6,11.8,6.4,22.2,7.4 c15.2,1.4,17.4-8.9,33.2-7.4c8.1,0.8,11.1,3.8,22.2,3.7c6.4-0.1,7.8-1.2,11.1,0c9.1,3.2,6.9,14.3,14.8,18.5 c9,4.8,17.5-6.9,33.2-3.7c7.1,1.4,6.2,4,14.8,7.4c21.4,8.4,33.2-5.2,51.7,3.7c7.1,3.4,8.3,6.8,14.8,7.4c9.5,0.8,11.7-6,22.2-7.4 c10.9-1.4,11.9,5.5,29.5,7.4c2.4,0.3,1.8,0.1,22.2,0c10.3,0,15.5,0,18.5,0C955.9,747.8,963.7,748.9,969.6,750.1z"/> </g> <path class="st1" d="M223.2,752c-2.5,5.1-13.3,3.8-14.8,3.7c-12.1-1.3-15.5-9.2-22.2-7.4c-5.6,1.6-4.2,7.4-11.1,11.1 c-7.5,4-19.4,2.4-25.8-3.7c-3.5-3.3-3.8-6.5-7.4-7.4c-3.8-1-5.9,2.1-11.1,3.7c-5.4,1.7-11-0.1-22.2-3.7c-6.1-2-11.6-3.7-18.5-7.4 c-3.9-2-7.7-4.1-11.2-6.2c2.8-0.6,5.6-1,7.5-1.2c14-1.7,16.3,3,25.8,0c5.9-1.8,4-3.4,18.5-11.1c5.7-3,8.2-4,10.3-6.3 c3.4,1.9,7.1,3,11.9,2.6c5-0.4,9.2-2.3,14.8,0c5.5,2.3,5.7,5.8,11.1,7.4c6.8,2,10-2.5,14.8,0c4.7,2.5,2.6,7.5,7.4,11.1 c6,4.5,12.6-1,18.5,3.7C222.9,743.6,224.8,748.8,223.2,752z"/> <path class="st1" d="M421.1,718.1c-2.1,3.8-14.9-5-29.5,0c-5.2,1.8-6.6,4-11.1,3.7c-7.2-0.4-9-6.4-14.8-7.4 c-7.9-1.4-10.6,8.8-22.2,14.8c-15.5,8.1-38,4.1-51.7-3.7c-5.4-3-8.1-5.9-14.8-7.4c-10.1-2.2-13.2,2.4-22.2,0 c-9.2-2.4-7.8-7.7-18.5-11.1c-8.5-2.7-11.2,0.1-18.5-3.7c-5.9-3.1-5.9-5.9-11.1-7.4c-7.2-2-10.4,2.5-14.8,0 c-4.7-2.7-2.5-8.8-7.4-14.8c-3.9-4.8-9-5.6-14.8-7.4c-2.1-0.7-4.3-1.5-6.6-2.4c1-6,3.6-13.8,10.3-16.1c10.6-3.5,20.5,4.5,22.2,11.1 c1.2,4.8-2.2,7.8,0,11.1c1.8,2.7,5.1,1.8,14.8,3.7c9.3,1.8,8.9,3.2,14.8,3.7c8.7,0.6,11-2.3,14.8,0c4.9,3,3,9.1,7.4,11.1 c3.8,1.7,6.2-2.5,14.8-3.7c8.5-1.1,11,2.4,14.8,0c5.2-3.4,2.1-11.3,7.4-14.8c4.4-3,8.2,1.7,14.8,0c10-2.6,9-15.3,18.5-18.5 c8.9-2.9,21.4,4.4,22.2,11.1c0.6,4.9-5.2,8-3.7,11.1c1.5,3,7.4,0.1,14.8,3.7c6.4,3.1,7.3,7.9,11.1,7.4c3-0.4,3-3.6,7.4-7.4 c3-2.6,5.9-3.5,8.3-4.1c3.1,3.4,6.5,6.2,10.1,7.8c2.4,1.1,7.1,2.7,11.1,7.4c4.2,5,3.2,8.4,7.4,11.1c4.2,2.7,7.2,0.5,11.1,3.7 C419.6,712.6,422.1,716.2,421.1,718.1z"/> <g> <path class="st0" d="M1875.8,921.2c-0.2,0.8-0.5,1.5-0.8,2.2c-3.6-0.2-7.1-0.9-10.3-2.2c-8.2-3.4-11.5-9.6-22.2-11.1 c-9.5-1.3-11,3-22.2,3.7c-18,1.1-23.1-9.7-36.9-7.4c-11.2,1.9-10.2,9.3-22.2,14.8c-25.8,11.7-61.8-8.5-66.5-11.1 c-15.1-8.4-22.4-17.4-33.2-14.8c-7.5,1.8-7,6.8-14.8,11.1c-19.8,10.9-39-12.5-66.5-3.7c-9.6,3.1-10,6.8-18.5,7.4 c-14.5,1-20.6-9.5-33.2-7.4c-10.3,1.7-9.3,9.2-18.5,11.1c-16.1,3.2-23.9-19.2-48-22.2c-12.6-1.6-11.2,4.4-25.8,3.7 c-25.8-1.3-36.2-20.3-51.7-14.8c-7,2.5-5,6.4-14.8,11.1c-14.4,6.8-23.9,0.8-29.5,7.4c-5.8,6.7,2,15.7-3.7,22.2 c-7.3,8.4-27.9,1.7-33.2,0c-11.7-3.8-12.3-7.1-22.2-11.1c-21.3-8.5-28.8,3-44.3-3.7c-19.2-8.2-14.1-28.4-36.9-40.6 c-8.1-4.3-15.4-5.4-29.5-7.4c-19.2-2.7-23.8,0.5-40.6-3.7c-10.4-2.6-16.9-5.9-18.5-3.7c-1.8,2.6,5.8,8.5,11.1,22.2 c3,7.6,5.1,13.1,3.7,18.5c-3.5,13.8-29.2,24.8-48,18.5c-15.1-5.1-16.6-18.2-29.5-18.5c-11.9-0.2-17.1,10.7-25.8,7.4 c-5.3-2-5.1-6.7-14.8-14.8c-4.9-4-8.8-6.1-11.1-7.4c-7.1-4.1-14.7-10.7-20.8-17.2c4.4-4.7,11.6-10.4,20.8-12.4 c19.8-4.1,29.3,13.4,44.3,7.4c10.7-4.3,9.7-14.9,22.2-18.5c10.1-2.9,14.1,3.1,22.2,0c10.8-4.1,9.5-17.1,18.5-29.5 c11.2-15.5,33.9-23.8,51.7-22.2c27.9,2.5,41.6,29.2,59.1,22.2c3.5-1.4,5.8-3.7,14.8-7.4c10.4-4.4,13.8-4,18.5-7.4 c7.3-5.3,8.6-12.9,11.1-18.5c8.2-18.7,37.3-31.7,59.1-29.5c28.1,2.8,35.7,30.2,59.1,25.8c9-1.7,12.5-6.6,25.8-7.4 c5.3-0.3,7,0.3,25.8,3.7c26.8,4.8,28.6,4.4,33.2,7.4c10.7,6.9,8.4,13.6,18.5,18.5c11.4,5.5,24.1,1.7,29.5,0 c14.2-4.3,13.3-10.2,25.8-14.8c12.6-4.5,30.9-4.9,44.3,3.7c8.3,5.4,9,10.6,22.2,18.5c6.8,4.1,7.2,3.1,14.8,7.4 c16.5,9.4,17,15.7,25.8,18.5c12.4,4,15.9-7.1,33.2-7.4c24.2-0.5,46.1,20.3,48,22.2c7.2,7,10.2,12.8,18.5,14.8 c9.8,2.4,13.3-3.8,22.2-3.7c23,0.3,34.4,41.8,49.8,38.8c6.9-1.3,6.6-10,14.8-11.1c5.6-0.7,7.4,3.1,25.8,14.8 c8.4,5.4,11.3,6.6,14.8,11.1C1872.6,907.6,1877.6,914.1,1875.8,921.2z"/> <path class="st1" d="M1875,923.4c-2.8,6-9.6,8.6-10.3,8.9c-9.6,3.6-14-3.6-29.5-3.7c-4.7,0-3.1,0.6-22.2,3.7 c-18.1,2.9-18.3,2.1-22.2,3.7c-13.3,5.6-11.4,15.7-22.2,22.2c-16.1,9.6-40.6-1-55.4-7.4c-19.6-8.5-21.4-15-33.2-14.8 c-9.6,0.2-13.5,4.7-33.2,14.8c-18.2,9.3-27.3,14-33.2,14.8c-30.2,4.1-48-27.4-70.2-18.5c-6.5,2.7-4.1,5-14.8,11.1 c-4.7,2.7-24.8,14-44.3,7.4c-7.6-2.6-6.5-5-14.8-7.4c-9.1-2.6-17.1-1.6-29.5,0c-9.6,1.3-14.4,1.9-18.5,3.7 c-13.2,5.8-12.1,14.3-22.2,18.5c-12,5.1-18.6-4.9-36.9-3.7c-16.1,1.1-15.7,9.1-29.5,11.1c-29.4,4.2-46.5-29.6-70.2-22.2 c-9.4,3-8,8.7-18.5,11.1c-14.7,3.3-20.5-7.3-40.6-7.4c-14.5-0.1-14.3,5.3-25.8,3.7c-14.7-2.1-16.3-10.9-33.2-14.8 c-11.8-2.7-21.7-0.8-25.8,0c-18.3,3.7-18.6,12.1-33.2,14.8c-17.7,3.2-34.7-5.9-44.3-11.1c-10.9-5.9-10.3-8.3-18.5-11.1 c-15.7-5.3-22.2,2.5-36.9,0c-19.4-3.3-37.7-21.9-36.9-36.9c0.3-5.9,3.3-5.6,11.1-22.2c7.4-15.7,5.9-18.5,11.1-25.8 c0.6-0.8,2.3-3.2,5-6.1c6.2,6.5,13.7,13.1,20.8,17.2c2.3,1.3,6.2,3.4,11.1,7.4c9.7,8,9.5,12.7,14.8,14.8c8.8,3.4,14-7.6,25.8-7.4 c13,0.2,14.4,13.4,29.5,18.5c18.8,6.3,44.5-4.6,48-18.5c1.4-5.4-0.7-10.9-3.7-18.5c-5.3-13.7-12.9-19.6-11.1-22.2 c1.6-2.3,8,1.1,18.5,3.7c16.8,4.2,21.4,1,40.6,3.7c14.1,2,21.5,3.1,29.5,7.4c22.9,12.2,17.8,32.4,36.9,40.6 c15.5,6.6,23-4.8,44.3,3.7c9.9,4,10.5,7.3,22.2,11.1c5.3,1.7,25.9,8.4,33.2,0c5.6-6.5-2.1-15.4,3.7-22.2c5.6-6.5,15.2-0.6,29.5-7.4 c9.8-4.7,7.8-8.6,14.8-11.1c15.5-5.5,25.9,13.4,51.7,14.8c14.6,0.7,13.3-5.2,25.8-3.7c24.1,3,31.9,25.4,48,22.2 c9.2-1.8,8.2-9.3,18.5-11.1c12.7-2.1,18.7,8.4,33.2,7.4c8.5-0.6,8.9-4.3,18.5-7.4c27.5-8.8,46.7,14.6,66.5,3.7 c7.8-4.3,7.2-9.3,14.8-11.1c10.9-2.6,18.2,6.4,33.2,14.8c4.6,2.6,40.7,22.8,66.5,11.1c12-5.4,11-12.9,22.2-14.8 c13.8-2.3,18.9,8.5,36.9,7.4c11.1-0.7,12.7-5,22.2-3.7c10.7,1.5,14,7.7,22.2,11.1C1867.9,922.5,1871.4,923.2,1875,923.4z"/> </g> </svg>