<?xml version="1.0" standalone="no"?>
<!DOCTYPE svg PUBLIC "-//W3C//DTD SVG 20010904//EN"
 "http://www.w3.org/TR/2001/REC-SVG-20010904/DTD/svg10.dtd">
<svg version="1.0" xmlns="http://www.w3.org/2000/svg"
 width="512.000000pt" height="512.000000pt" viewBox="0 0 512.000000 512.000000"
 preserveAspectRatio="xMidYMid meet">

<g transform="translate(0.000000,512.000000) scale(0.100000,-0.100000)"
fill="#000000" stroke="none">
<path d="M1365 4470 c-193 -40 -334 -187 -364 -380 -6 -36 -11 -148 -11 -250
l0 -185 -171 -89 c-196 -102 -263 -156 -306 -244 l-28 -57 0 -1175 0 -1175 27
-57 c52 -111 146 -185 263 -208 44 -8 539 -10 1825 -8 l1765 3 57 27 c80 37
149 105 184 181 l29 62 3 1154 c3 1270 5 1207 -59 1304 -41 62 -88 95 -282
197 l-162 85 -6 230 c-5 204 -8 237 -27 290 -56 152 -176 258 -328 290 -58 12
-248 15 -1219 14 -632 -1 -1168 -5 -1190 -9z m2384 -226 c70 -20 125 -75 145
-145 14 -45 16 -144 16 -704 0 -609 -1 -653 -17 -667 -10 -8 -220 -120 -468
-248 -247 -128 -522 -271 -610 -317 -88 -47 -179 -90 -202 -96 -67 -18 -130 2
-308 96 -88 47 -365 191 -615 322 -250 130 -460 241 -467 247 -10 8 -13 150
-13 662 0 734 -1 725 69 795 74 74 -4 69 1272 70 1009 1 1152 -1 1198 -15z
m-2759 -1120 l0 -275 -142 75 -143 75 -3 102 c-2 61 2 114 9 131 6 15 32 41
58 57 70 44 194 111 209 111 9 0 12 -62 12 -276z m3223 245 c113 -57 177 -100
193 -131 21 -41 30 -156 15 -201 -14 -40 -56 -70 -208 -146 l-83 -41 0 275 c0
182 3 275 10 275 6 0 39 -14 73 -31z m-3010 -875 c271 -141 575 -300 677 -354
558 -295 559 -295 704 -288 118 6 128 10 587 250 206 108 568 298 806 422 238
124 437 226 443 226 7 0 10 -256 8 -887 -3 -873 -3 -889 -24 -927 -11 -22 -35
-47 -54 -58 -33 -17 -104 -18 -1785 -18 -1646 0 -1752 1 -1784 18 -19 9 -44
30 -55 45 -21 28 -21 36 -24 928 -1 494 0 899 3 899 4 0 227 -115 498 -256z"/>
<path d="M1880 3308 c-46 -31 -72 -82 -66 -131 16 -133 178 -170 254 -57 79
117 -71 267 -188 188z"/>
<path d="M3078 3280 c-39 -39 -40 -42 -36 -96 4 -46 10 -61 37 -87 28 -29 37
-32 92 -32 57 0 62 2 95 37 29 33 34 45 34 89 0 46 -4 55 -39 90 -35 35 -44
39 -91 39 -48 0 -56 -4 -92 -40z"/>
<path d="M2261 3096 c-24 -29 21 -71 131 -121 153 -70 320 -48 442 58 31 26
37 37 32 55 -10 29 -39 28 -79 -2 -140 -105 -280 -108 -435 -9 -58 36 -74 40
-91 19z"/>
</g>
</svg>
