<?xml version="1.0" standalone="no"?>
<!DOCTYPE svg PUBLIC "-//W3C//DTD SVG 20010904//EN"
 "http://www.w3.org/TR/2001/REC-SVG-20010904/DTD/svg10.dtd">
<svg version="1.0" xmlns="http://www.w3.org/2000/svg"
 width="512.000000pt" height="512.000000pt" viewBox="0 0 512.000000 512.000000"
 preserveAspectRatio="xMidYMid meet">

<g transform="translate(0.000000,512.000000) scale(0.100000,-0.100000)"
fill="#000000" stroke="none">
<path d="M970 5099 c-218 -29 -416 -171 -514 -370 -60 -121 -80 -214 -73 -339
10 -181 71 -316 201 -446 91 -90 171 -140 286 -176 107 -33 284 -33 385 1 121
40 204 89 285 171 118 119 179 242 198 402 55 441 -326 816 -768 757z"/>
<path d="M4072 5100 c-151 -21 -275 -83 -388 -195 -133 -131 -192 -262 -201
-445 -6 -132 12 -226 66 -335 86 -172 227 -294 406 -351 440 -140 885 187 885
651 0 267 -143 493 -385 610 -124 60 -255 82 -383 65z"/>
<path d="M234 2076 c-160 -53 -259 -217 -226 -375 14 -65 79 -212 150 -336
429 -751 1187 -1232 2102 -1335 134 -15 463 -15 600 -1 483 53 955 228 1330
494 382 271 685 633 876 1047 45 97 48 111 49 185 0 66 -5 90 -27 137 -63 136
-211 213 -355 187 -129 -24 -192 -82 -280 -259 -111 -224 -229 -387 -404 -557
-327 -318 -758 -519 -1229 -573 -105 -12 -389 -15 -478 -5 -463 53 -852 214
-1179 489 -214 180 -362 372 -494 642 -75 155 -120 208 -207 247 -58 25 -171
32 -228 13z"/>
</g>
</svg>
